<mxfile host="app.diagrams.net" modified="2023-04-08T07:54:55.588Z" agent="Mozilla/5.0 (Windows NT 10.0; Win64; x64) AppleWebKit/537.36 (KHTML, like Gecko) Chrome/112.0.0.0 Safari/537.36" version="21.1.5" etag="pH02KdoM0Mzsu9dCTh5S" type="github">
  <diagram name="Page-1" id="r0PEed0FSQuAJFAYM_Kr">
    <mxGraphModel>
      <root>
        <mxCell id="0" />
        <mxCell id="1" parent="0" />
      </root>
    </mxGraphModel>
  </diagram>
</mxfile>
